<mxfile host="app.diagrams.net" agent="Mozilla/5.0 (Macintosh; Intel Mac OS X 10_15_7) AppleWebKit/537.36 (KHTML, like Gecko) Chrome/135.0.0.0 Safari/537.36 Edg/135.0.0.0" version="26.2.14" pages="2">
  <diagram name="Page-1" id="kJb6FhVqCGiKS8Cj0wNL">
    <mxGraphModel dx="1665" dy="1753" grid="0" gridSize="10" guides="1" tooltips="1" connect="1" arrows="1" fold="1" page="0" pageScale="1" pageWidth="850" pageHeight="1100" background="light-dark(#F1F1EF,#191919)" math="0" shadow="0">
      <root>
        <mxCell id="0" />
        <mxCell id="1" parent="0" />
        <mxCell id="kuuHvWOsZGcF03gMZcih-3" value="" style="edgeStyle=orthogonalEdgeStyle;rounded=0;orthogonalLoop=1;jettySize=auto;html=1;" parent="1" source="kuuHvWOsZGcF03gMZcih-1" target="kuuHvWOsZGcF03gMZcih-2" edge="1">
          <mxGeometry relative="1" as="geometry" />
        </mxCell>
        <mxCell id="kuuHvWOsZGcF03gMZcih-4" value="No" style="edgeLabel;html=1;align=center;verticalAlign=middle;resizable=0;points=[];" parent="kuuHvWOsZGcF03gMZcih-3" vertex="1" connectable="0">
          <mxGeometry x="-0.05" y="4" relative="1" as="geometry">
            <mxPoint x="-4" as="offset" />
          </mxGeometry>
        </mxCell>
        <mxCell id="kuuHvWOsZGcF03gMZcih-10" value="" style="edgeStyle=orthogonalEdgeStyle;rounded=0;orthogonalLoop=1;jettySize=auto;html=1;" parent="1" source="kuuHvWOsZGcF03gMZcih-1" target="kuuHvWOsZGcF03gMZcih-9" edge="1">
          <mxGeometry relative="1" as="geometry" />
        </mxCell>
        <mxCell id="kuuHvWOsZGcF03gMZcih-11" value="Yes" style="edgeLabel;html=1;align=center;verticalAlign=middle;resizable=0;points=[];" parent="kuuHvWOsZGcF03gMZcih-10" vertex="1" connectable="0">
          <mxGeometry x="-0.1464" relative="1" as="geometry">
            <mxPoint as="offset" />
          </mxGeometry>
        </mxCell>
        <mxCell id="kuuHvWOsZGcF03gMZcih-1" value="Is my prev layer confirmed?" style="rounded=1;whiteSpace=wrap;html=1;" parent="1" vertex="1">
          <mxGeometry x="36" y="406" width="120" height="60" as="geometry" />
        </mxCell>
        <mxCell id="kuuHvWOsZGcF03gMZcih-5" style="edgeStyle=orthogonalEdgeStyle;rounded=0;orthogonalLoop=1;jettySize=auto;html=1;exitX=0.5;exitY=1;exitDx=0;exitDy=0;entryX=0.5;entryY=0;entryDx=0;entryDy=0;" parent="1" source="kuuHvWOsZGcF03gMZcih-2" target="kuuHvWOsZGcF03gMZcih-51" edge="1">
          <mxGeometry relative="1" as="geometry">
            <mxPoint x="96" y="676" as="targetPoint" />
          </mxGeometry>
        </mxCell>
        <mxCell id="kuuHvWOsZGcF03gMZcih-7" value="No" style="edgeLabel;html=1;align=center;verticalAlign=middle;resizable=0;points=[];" parent="kuuHvWOsZGcF03gMZcih-5" vertex="1" connectable="0">
          <mxGeometry x="0.0335" relative="1" as="geometry">
            <mxPoint as="offset" />
          </mxGeometry>
        </mxCell>
        <mxCell id="kuuHvWOsZGcF03gMZcih-46" style="edgeStyle=orthogonalEdgeStyle;rounded=0;orthogonalLoop=1;jettySize=auto;html=1;exitX=1;exitY=0.5;exitDx=0;exitDy=0;entryX=0;entryY=0.5;entryDx=0;entryDy=0;" parent="1" source="kuuHvWOsZGcF03gMZcih-2" target="kuuHvWOsZGcF03gMZcih-45" edge="1">
          <mxGeometry relative="1" as="geometry" />
        </mxCell>
        <mxCell id="kuuHvWOsZGcF03gMZcih-49" value="Yes" style="edgeLabel;html=1;align=center;verticalAlign=middle;resizable=0;points=[];" parent="kuuHvWOsZGcF03gMZcih-46" vertex="1" connectable="0">
          <mxGeometry x="0.1064" relative="1" as="geometry">
            <mxPoint x="-6" as="offset" />
          </mxGeometry>
        </mxCell>
        <mxCell id="kuuHvWOsZGcF03gMZcih-2" value="Is my new layer confirmed?" style="rounded=1;whiteSpace=wrap;html=1;" parent="1" vertex="1">
          <mxGeometry x="36" y="546" width="120" height="60" as="geometry" />
        </mxCell>
        <mxCell id="kuuHvWOsZGcF03gMZcih-16" style="edgeStyle=orthogonalEdgeStyle;rounded=0;orthogonalLoop=1;jettySize=auto;html=1;exitX=0.5;exitY=0;exitDx=0;exitDy=0;entryX=0.5;entryY=1;entryDx=0;entryDy=0;" parent="1" source="kuuHvWOsZGcF03gMZcih-9" target="kuuHvWOsZGcF03gMZcih-14" edge="1">
          <mxGeometry relative="1" as="geometry" />
        </mxCell>
        <mxCell id="kuuHvWOsZGcF03gMZcih-17" value="prev mod, new not" style="edgeLabel;html=1;align=center;verticalAlign=middle;resizable=0;points=[];" parent="kuuHvWOsZGcF03gMZcih-16" vertex="1" connectable="0">
          <mxGeometry x="0.2465" relative="1" as="geometry">
            <mxPoint x="15" y="-1" as="offset" />
          </mxGeometry>
        </mxCell>
        <mxCell id="kuuHvWOsZGcF03gMZcih-18" style="edgeStyle=orthogonalEdgeStyle;rounded=0;orthogonalLoop=1;jettySize=auto;html=1;exitX=0.5;exitY=0;exitDx=0;exitDy=0;" parent="1" source="kuuHvWOsZGcF03gMZcih-9" target="kuuHvWOsZGcF03gMZcih-15" edge="1">
          <mxGeometry relative="1" as="geometry" />
        </mxCell>
        <mxCell id="kuuHvWOsZGcF03gMZcih-19" value="Yes" style="edgeLabel;html=1;align=center;verticalAlign=middle;resizable=0;points=[];" parent="kuuHvWOsZGcF03gMZcih-18" vertex="1" connectable="0">
          <mxGeometry x="-0.3895" relative="1" as="geometry">
            <mxPoint as="offset" />
          </mxGeometry>
        </mxCell>
        <mxCell id="kuuHvWOsZGcF03gMZcih-21" value="" style="edgeStyle=orthogonalEdgeStyle;rounded=0;orthogonalLoop=1;jettySize=auto;html=1;" parent="1" source="kuuHvWOsZGcF03gMZcih-9" target="kuuHvWOsZGcF03gMZcih-20" edge="1">
          <mxGeometry relative="1" as="geometry" />
        </mxCell>
        <mxCell id="kuuHvWOsZGcF03gMZcih-22" value="No" style="edgeLabel;html=1;align=center;verticalAlign=middle;resizable=0;points=[];" parent="kuuHvWOsZGcF03gMZcih-21" vertex="1" connectable="0">
          <mxGeometry x="-0.6413" y="1" relative="1" as="geometry">
            <mxPoint x="4" as="offset" />
          </mxGeometry>
        </mxCell>
        <mxCell id="kuuHvWOsZGcF03gMZcih-9" value="Is new layer also confirmed?" style="rounded=1;whiteSpace=wrap;html=1;" parent="1" vertex="1">
          <mxGeometry x="203" y="406" width="120" height="60" as="geometry" />
        </mxCell>
        <mxCell id="kuuHvWOsZGcF03gMZcih-14" value="Keep prev" style="rounded=1;whiteSpace=wrap;html=1;fillColor=#d5e8d4;strokeColor=#82b366;" parent="1" vertex="1">
          <mxGeometry x="68" y="271" width="120" height="60" as="geometry" />
        </mxCell>
        <mxCell id="kuuHvWOsZGcF03gMZcih-15" value="Keep new" style="rounded=1;whiteSpace=wrap;html=1;fillColor=#d5e8d4;strokeColor=#82b366;" parent="1" vertex="1">
          <mxGeometry x="203" y="271" width="120" height="60" as="geometry" />
        </mxCell>
        <mxCell id="kuuHvWOsZGcF03gMZcih-23" style="edgeStyle=orthogonalEdgeStyle;rounded=0;orthogonalLoop=1;jettySize=auto;html=1;exitX=0.5;exitY=0;exitDx=0;exitDy=0;entryX=1;entryY=0.5;entryDx=0;entryDy=0;" parent="1" source="kuuHvWOsZGcF03gMZcih-20" target="kuuHvWOsZGcF03gMZcih-15" edge="1">
          <mxGeometry relative="1" as="geometry" />
        </mxCell>
        <mxCell id="kuuHvWOsZGcF03gMZcih-24" value="No" style="edgeLabel;html=1;align=center;verticalAlign=middle;resizable=0;points=[];" parent="kuuHvWOsZGcF03gMZcih-23" vertex="1" connectable="0">
          <mxGeometry x="-0.5409" y="1" relative="1" as="geometry">
            <mxPoint as="offset" />
          </mxGeometry>
        </mxCell>
        <mxCell id="kuuHvWOsZGcF03gMZcih-26" style="edgeStyle=orthogonalEdgeStyle;rounded=0;orthogonalLoop=1;jettySize=auto;html=1;exitX=1;exitY=0.5;exitDx=0;exitDy=0;" parent="1" source="kuuHvWOsZGcF03gMZcih-20" target="kuuHvWOsZGcF03gMZcih-25" edge="1">
          <mxGeometry relative="1" as="geometry" />
        </mxCell>
        <mxCell id="kuuHvWOsZGcF03gMZcih-27" value="Yes" style="edgeLabel;html=1;align=center;verticalAlign=middle;resizable=0;points=[];" parent="kuuHvWOsZGcF03gMZcih-26" vertex="1" connectable="0">
          <mxGeometry x="-0.0971" y="2" relative="1" as="geometry">
            <mxPoint y="1" as="offset" />
          </mxGeometry>
        </mxCell>
        <mxCell id="kuuHvWOsZGcF03gMZcih-20" value="Is my prev modified?" style="rounded=1;whiteSpace=wrap;html=1;" parent="1" vertex="1">
          <mxGeometry x="359" y="406" width="120" height="60" as="geometry" />
        </mxCell>
        <mxCell id="kuuHvWOsZGcF03gMZcih-29" style="edgeStyle=orthogonalEdgeStyle;rounded=0;orthogonalLoop=1;jettySize=auto;html=1;exitX=1;exitY=0.5;exitDx=0;exitDy=0;" parent="1" source="kuuHvWOsZGcF03gMZcih-25" target="kuuHvWOsZGcF03gMZcih-28" edge="1">
          <mxGeometry relative="1" as="geometry" />
        </mxCell>
        <mxCell id="kuuHvWOsZGcF03gMZcih-33" value="Yes" style="edgeLabel;html=1;align=center;verticalAlign=middle;resizable=0;points=[];" parent="kuuHvWOsZGcF03gMZcih-29" vertex="1" connectable="0">
          <mxGeometry x="-0.0363" y="-2" relative="1" as="geometry">
            <mxPoint as="offset" />
          </mxGeometry>
        </mxCell>
        <mxCell id="kuuHvWOsZGcF03gMZcih-31" style="edgeStyle=orthogonalEdgeStyle;rounded=0;orthogonalLoop=1;jettySize=auto;html=1;exitX=0.5;exitY=0;exitDx=0;exitDy=0;entryX=0.5;entryY=1;entryDx=0;entryDy=0;" parent="1" source="kuuHvWOsZGcF03gMZcih-34" target="kuuHvWOsZGcF03gMZcih-30" edge="1">
          <mxGeometry relative="1" as="geometry" />
        </mxCell>
        <mxCell id="kuuHvWOsZGcF03gMZcih-37" value="No" style="edgeLabel;html=1;align=center;verticalAlign=middle;resizable=0;points=[];" parent="kuuHvWOsZGcF03gMZcih-31" vertex="1" connectable="0">
          <mxGeometry x="-0.5266" y="1" relative="1" as="geometry">
            <mxPoint y="-7" as="offset" />
          </mxGeometry>
        </mxCell>
        <mxCell id="kuuHvWOsZGcF03gMZcih-25" value="Do I have a confirmed sibling on new layer?" style="rounded=1;whiteSpace=wrap;html=1;" parent="1" vertex="1">
          <mxGeometry x="526" y="406" width="120" height="60" as="geometry" />
        </mxCell>
        <mxCell id="kuuHvWOsZGcF03gMZcih-39" style="edgeStyle=orthogonalEdgeStyle;rounded=0;orthogonalLoop=1;jettySize=auto;html=1;exitX=0.5;exitY=0;exitDx=0;exitDy=0;entryX=0.5;entryY=1;entryDx=0;entryDy=0;" parent="1" source="kuuHvWOsZGcF03gMZcih-28" target="kuuHvWOsZGcF03gMZcih-40" edge="1">
          <mxGeometry relative="1" as="geometry">
            <mxPoint x="758.1891891891892" y="378.2432432432432" as="targetPoint" />
          </mxGeometry>
        </mxCell>
        <mxCell id="kuuHvWOsZGcF03gMZcih-42" value="Yes" style="edgeLabel;html=1;align=center;verticalAlign=middle;resizable=0;points=[];" parent="kuuHvWOsZGcF03gMZcih-39" vertex="1" connectable="0">
          <mxGeometry x="-0.3113" y="1" relative="1" as="geometry">
            <mxPoint as="offset" />
          </mxGeometry>
        </mxCell>
        <mxCell id="kuuHvWOsZGcF03gMZcih-41" style="edgeStyle=orthogonalEdgeStyle;rounded=0;orthogonalLoop=1;jettySize=auto;html=1;exitX=1;exitY=0.5;exitDx=0;exitDy=0;entryX=-0.004;entryY=0.591;entryDx=0;entryDy=0;entryPerimeter=0;" parent="1" source="kuuHvWOsZGcF03gMZcih-28" target="kuuHvWOsZGcF03gMZcih-43" edge="1">
          <mxGeometry relative="1" as="geometry">
            <mxPoint x="864" y="438" as="targetPoint" />
          </mxGeometry>
        </mxCell>
        <mxCell id="kuuHvWOsZGcF03gMZcih-44" value="No" style="edgeLabel;html=1;align=center;verticalAlign=middle;resizable=0;points=[];" parent="kuuHvWOsZGcF03gMZcih-41" vertex="1" connectable="0">
          <mxGeometry x="-0.0989" y="1" relative="1" as="geometry">
            <mxPoint as="offset" />
          </mxGeometry>
        </mxCell>
        <mxCell id="kuuHvWOsZGcF03gMZcih-28" value="Is confirmed sibling modified?" style="rounded=1;whiteSpace=wrap;html=1;" parent="1" vertex="1">
          <mxGeometry x="698" y="408" width="120" height="60" as="geometry" />
        </mxCell>
        <mxCell id="kuuHvWOsZGcF03gMZcih-30" value="Keep prev" style="rounded=1;whiteSpace=wrap;html=1;fillColor=#d5e8d4;strokeColor=#82b366;" parent="1" vertex="1">
          <mxGeometry x="526" y="177" width="120" height="60" as="geometry" />
        </mxCell>
        <mxCell id="kuuHvWOsZGcF03gMZcih-35" value="" style="edgeStyle=orthogonalEdgeStyle;rounded=0;orthogonalLoop=1;jettySize=auto;html=1;exitX=0.5;exitY=0;exitDx=0;exitDy=0;entryX=0.5;entryY=1;entryDx=0;entryDy=0;" parent="1" source="kuuHvWOsZGcF03gMZcih-25" target="kuuHvWOsZGcF03gMZcih-34" edge="1">
          <mxGeometry relative="1" as="geometry">
            <mxPoint x="586" y="406" as="sourcePoint" />
            <mxPoint x="586" y="331" as="targetPoint" />
          </mxGeometry>
        </mxCell>
        <mxCell id="kuuHvWOsZGcF03gMZcih-36" value="No" style="edgeLabel;html=1;align=center;verticalAlign=middle;resizable=0;points=[];" parent="kuuHvWOsZGcF03gMZcih-35" vertex="1" connectable="0">
          <mxGeometry x="-0.1157" y="-2" relative="1" as="geometry">
            <mxPoint x="-2" as="offset" />
          </mxGeometry>
        </mxCell>
        <mxCell id="kuuHvWOsZGcF03gMZcih-38" style="edgeStyle=orthogonalEdgeStyle;rounded=0;orthogonalLoop=1;jettySize=auto;html=1;exitX=0;exitY=0.5;exitDx=0;exitDy=0;entryX=1;entryY=0.5;entryDx=0;entryDy=0;" parent="1" source="kuuHvWOsZGcF03gMZcih-34" target="kuuHvWOsZGcF03gMZcih-15" edge="1">
          <mxGeometry relative="1" as="geometry" />
        </mxCell>
        <mxCell id="kuuHvWOsZGcF03gMZcih-72" value="Yes" style="edgeLabel;html=1;align=center;verticalAlign=middle;resizable=0;points=[];" parent="kuuHvWOsZGcF03gMZcih-38" vertex="1" connectable="0">
          <mxGeometry x="-0.5369" y="-1" relative="1" as="geometry">
            <mxPoint as="offset" />
          </mxGeometry>
        </mxCell>
        <mxCell id="kuuHvWOsZGcF03gMZcih-34" value="Is my new layer modified?" style="rounded=1;whiteSpace=wrap;html=1;" parent="1" vertex="1">
          <mxGeometry x="526" y="271" width="120" height="60" as="geometry" />
        </mxCell>
        <mxCell id="kuuHvWOsZGcF03gMZcih-40" value="Keep new" style="rounded=1;whiteSpace=wrap;html=1;fillColor=#d5e8d4;strokeColor=#82b366;" parent="1" vertex="1">
          <mxGeometry x="698" y="271" width="120" height="60" as="geometry" />
        </mxCell>
        <mxCell id="kuuHvWOsZGcF03gMZcih-43" value="Keep prev" style="rounded=1;whiteSpace=wrap;html=1;fillColor=#d5e8d4;strokeColor=#82b366;" parent="1" vertex="1">
          <mxGeometry x="870" y="403" width="120" height="60" as="geometry" />
        </mxCell>
        <mxCell id="kuuHvWOsZGcF03gMZcih-48" value="Yes" style="edgeStyle=orthogonalEdgeStyle;rounded=0;orthogonalLoop=1;jettySize=auto;html=1;" parent="1" source="kuuHvWOsZGcF03gMZcih-45" target="kuuHvWOsZGcF03gMZcih-47" edge="1">
          <mxGeometry relative="1" as="geometry" />
        </mxCell>
        <mxCell id="kuuHvWOsZGcF03gMZcih-55" value="" style="edgeStyle=orthogonalEdgeStyle;rounded=0;orthogonalLoop=1;jettySize=auto;html=1;" parent="1" source="kuuHvWOsZGcF03gMZcih-45" target="kuuHvWOsZGcF03gMZcih-54" edge="1">
          <mxGeometry relative="1" as="geometry" />
        </mxCell>
        <mxCell id="kuuHvWOsZGcF03gMZcih-56" value="No" style="edgeLabel;html=1;align=center;verticalAlign=middle;resizable=0;points=[];" parent="kuuHvWOsZGcF03gMZcih-55" vertex="1" connectable="0">
          <mxGeometry x="-0.12" relative="1" as="geometry">
            <mxPoint as="offset" />
          </mxGeometry>
        </mxCell>
        <mxCell id="kuuHvWOsZGcF03gMZcih-45" value="Is the new layer modified?" style="rounded=1;whiteSpace=wrap;html=1;" parent="1" vertex="1">
          <mxGeometry x="203" y="546" width="120" height="60" as="geometry" />
        </mxCell>
        <mxCell id="kuuHvWOsZGcF03gMZcih-47" value="Keep new" style="rounded=1;whiteSpace=wrap;html=1;fillColor=#d5e8d4;strokeColor=#82b366;" parent="1" vertex="1">
          <mxGeometry x="373" y="546" width="120" height="60" as="geometry" />
        </mxCell>
        <mxCell id="kuuHvWOsZGcF03gMZcih-51" value="Keep new" style="rounded=1;whiteSpace=wrap;html=1;fillColor=#d5e8d4;strokeColor=#82b366;" parent="1" vertex="1">
          <mxGeometry x="36" y="681" width="120" height="60" as="geometry" />
        </mxCell>
        <mxCell id="kuuHvWOsZGcF03gMZcih-57" style="edgeStyle=orthogonalEdgeStyle;rounded=0;orthogonalLoop=1;jettySize=auto;html=1;exitX=1;exitY=0.5;exitDx=0;exitDy=0;entryX=0.5;entryY=1;entryDx=0;entryDy=0;" parent="1" source="kuuHvWOsZGcF03gMZcih-54" target="kuuHvWOsZGcF03gMZcih-47" edge="1">
          <mxGeometry relative="1" as="geometry" />
        </mxCell>
        <mxCell id="kuuHvWOsZGcF03gMZcih-58" value="No" style="edgeLabel;html=1;align=center;verticalAlign=middle;resizable=0;points=[];" parent="kuuHvWOsZGcF03gMZcih-57" vertex="1" connectable="0">
          <mxGeometry x="-0.5318" y="-2" relative="1" as="geometry">
            <mxPoint y="-2" as="offset" />
          </mxGeometry>
        </mxCell>
        <mxCell id="kuuHvWOsZGcF03gMZcih-60" value="Yes" style="edgeStyle=orthogonalEdgeStyle;rounded=0;orthogonalLoop=1;jettySize=auto;html=1;" parent="1" source="kuuHvWOsZGcF03gMZcih-54" target="kuuHvWOsZGcF03gMZcih-59" edge="1">
          <mxGeometry relative="1" as="geometry" />
        </mxCell>
        <mxCell id="kuuHvWOsZGcF03gMZcih-54" value="Do I have a confirmed sibling on the previous layer?" style="rounded=1;whiteSpace=wrap;html=1;" parent="1" vertex="1">
          <mxGeometry x="203" y="681" width="120" height="60" as="geometry" />
        </mxCell>
        <mxCell id="kuuHvWOsZGcF03gMZcih-62" value="" style="edgeStyle=orthogonalEdgeStyle;rounded=0;orthogonalLoop=1;jettySize=auto;html=1;" parent="1" source="kuuHvWOsZGcF03gMZcih-59" target="kuuHvWOsZGcF03gMZcih-61" edge="1">
          <mxGeometry relative="1" as="geometry" />
        </mxCell>
        <mxCell id="kuuHvWOsZGcF03gMZcih-63" value="No" style="edgeLabel;html=1;align=center;verticalAlign=middle;resizable=0;points=[];" parent="kuuHvWOsZGcF03gMZcih-62" vertex="1" connectable="0">
          <mxGeometry x="0.0853" relative="1" as="geometry">
            <mxPoint as="offset" />
          </mxGeometry>
        </mxCell>
        <mxCell id="kuuHvWOsZGcF03gMZcih-65" style="edgeStyle=orthogonalEdgeStyle;rounded=0;orthogonalLoop=1;jettySize=auto;html=1;exitX=1;exitY=0.5;exitDx=0;exitDy=0;" parent="1" source="kuuHvWOsZGcF03gMZcih-59" target="kuuHvWOsZGcF03gMZcih-78" edge="1">
          <mxGeometry relative="1" as="geometry">
            <mxPoint x="400" y="817" as="targetPoint" />
          </mxGeometry>
        </mxCell>
        <mxCell id="kuuHvWOsZGcF03gMZcih-66" value="Yes" style="edgeLabel;html=1;align=center;verticalAlign=middle;resizable=0;points=[];" parent="kuuHvWOsZGcF03gMZcih-65" vertex="1" connectable="0">
          <mxGeometry x="-0.3853" y="-1" relative="1" as="geometry">
            <mxPoint as="offset" />
          </mxGeometry>
        </mxCell>
        <mxCell id="kuuHvWOsZGcF03gMZcih-59" value="Is the confirmed sibling modified?" style="rounded=1;whiteSpace=wrap;html=1;" parent="1" vertex="1">
          <mxGeometry x="203" y="787" width="120" height="60" as="geometry" />
        </mxCell>
        <mxCell id="kuuHvWOsZGcF03gMZcih-61" value="Keep new" style="rounded=1;whiteSpace=wrap;html=1;fillColor=#d5e8d4;strokeColor=#82b366;" parent="1" vertex="1">
          <mxGeometry x="203" y="890" width="120" height="60" as="geometry" />
        </mxCell>
        <mxCell id="kuuHvWOsZGcF03gMZcih-77" value="Keep prev" style="rounded=1;whiteSpace=wrap;html=1;fillColor=#d5e8d4;strokeColor=#82b366;" parent="1" vertex="1">
          <mxGeometry x="576" y="787" width="120" height="60" as="geometry" />
        </mxCell>
        <mxCell id="kuuHvWOsZGcF03gMZcih-79" style="edgeStyle=orthogonalEdgeStyle;rounded=0;orthogonalLoop=1;jettySize=auto;html=1;exitX=0.5;exitY=1;exitDx=0;exitDy=0;entryX=1;entryY=0.5;entryDx=0;entryDy=0;" parent="1" source="kuuHvWOsZGcF03gMZcih-78" target="kuuHvWOsZGcF03gMZcih-61" edge="1">
          <mxGeometry relative="1" as="geometry" />
        </mxCell>
        <mxCell id="kuuHvWOsZGcF03gMZcih-80" style="edgeStyle=orthogonalEdgeStyle;rounded=0;orthogonalLoop=1;jettySize=auto;html=1;exitX=1;exitY=0.5;exitDx=0;exitDy=0;entryX=0;entryY=0.5;entryDx=0;entryDy=0;" parent="1" source="kuuHvWOsZGcF03gMZcih-78" target="kuuHvWOsZGcF03gMZcih-77" edge="1">
          <mxGeometry relative="1" as="geometry" />
        </mxCell>
        <mxCell id="kuuHvWOsZGcF03gMZcih-78" value="Is the sibling modied on the new layer?" style="rounded=1;whiteSpace=wrap;html=1;" parent="1" vertex="1">
          <mxGeometry x="406" y="787" width="120" height="60" as="geometry" />
        </mxCell>
        <mxCell id="Xx5x_uMALJ7EPCq8Be9p-1" value="Test&lt;div&gt;&lt;br&gt;&lt;/div&gt;" style="text;html=1;align=center;verticalAlign=middle;resizable=0;points=[];autosize=1;strokeColor=none;fillColor=none;fontSize=16;" vertex="1" parent="1">
          <mxGeometry x="801.5" y="591.5" width="47" height="50" as="geometry" />
        </mxCell>
      </root>
    </mxGraphModel>
  </diagram>
  <diagram id="2-kz-wCo3BVhbDf41DF8" name="Page-2">
    <mxGraphModel dx="887" dy="585" grid="1" gridSize="10" guides="1" tooltips="1" connect="1" arrows="1" fold="1" page="1" pageScale="1" pageWidth="850" pageHeight="1100" math="0" shadow="0">
      <root>
        <mxCell id="0" />
        <mxCell id="1" parent="0" />
        <mxCell id="oOqZ6PW6AVLumU6SATjX-8" value="" style="rounded=0;orthogonalLoop=1;jettySize=auto;html=1;endArrow=ERmany;endFill=0;entryX=0.498;entryY=-0.06;entryDx=0;entryDy=0;entryPerimeter=0;" parent="1" source="oOqZ6PW6AVLumU6SATjX-1" target="oOqZ6PW6AVLumU6SATjX-4" edge="1">
          <mxGeometry relative="1" as="geometry">
            <mxPoint x="550" y="450" as="targetPoint" />
          </mxGeometry>
        </mxCell>
        <mxCell id="oOqZ6PW6AVLumU6SATjX-9" style="rounded=0;orthogonalLoop=1;jettySize=auto;html=1;exitX=0;exitY=1;exitDx=0;exitDy=0;endArrow=ERmany;endFill=0;entryX=1;entryY=0.25;entryDx=0;entryDy=0;" parent="1" source="oOqZ6PW6AVLumU6SATjX-22" target="oOqZ6PW6AVLumU6SATjX-10" edge="1">
          <mxGeometry relative="1" as="geometry">
            <mxPoint x="290" y="435" as="targetPoint" />
            <mxPoint x="170" y="430" as="sourcePoint" />
          </mxGeometry>
        </mxCell>
        <mxCell id="oOqZ6PW6AVLumU6SATjX-23" value="" style="edgeStyle=orthogonalEdgeStyle;rounded=0;orthogonalLoop=1;jettySize=auto;html=1;endArrow=ERmany;endFill=0;dashed=1;startArrow=ERmany;startFill=0;" parent="1" source="oOqZ6PW6AVLumU6SATjX-1" target="oOqZ6PW6AVLumU6SATjX-22" edge="1">
          <mxGeometry relative="1" as="geometry" />
        </mxCell>
        <mxCell id="oOqZ6PW6AVLumU6SATjX-1" value="Requirement" style="rounded=1;whiteSpace=wrap;html=1;" parent="1" vertex="1">
          <mxGeometry x="490" y="380" width="120" height="30" as="geometry" />
        </mxCell>
        <mxCell id="oOqZ6PW6AVLumU6SATjX-19" style="edgeStyle=orthogonalEdgeStyle;rounded=0;orthogonalLoop=1;jettySize=auto;html=1;endArrow=ERmany;endFill=0;" parent="1" source="oOqZ6PW6AVLumU6SATjX-4" target="oOqZ6PW6AVLumU6SATjX-18" edge="1">
          <mxGeometry relative="1" as="geometry" />
        </mxCell>
        <mxCell id="oOqZ6PW6AVLumU6SATjX-21" style="edgeStyle=orthogonalEdgeStyle;rounded=0;orthogonalLoop=1;jettySize=auto;html=1;endArrow=ERmany;endFill=0;" parent="1" source="oOqZ6PW6AVLumU6SATjX-4" target="oOqZ6PW6AVLumU6SATjX-15" edge="1">
          <mxGeometry relative="1" as="geometry" />
        </mxCell>
        <mxCell id="oOqZ6PW6AVLumU6SATjX-4" value="Option" style="rounded=1;whiteSpace=wrap;html=1;" parent="1" vertex="1">
          <mxGeometry x="490" y="436" width="120" height="30" as="geometry" />
        </mxCell>
        <mxCell id="oOqZ6PW6AVLumU6SATjX-10" value="Attachment" style="rounded=1;whiteSpace=wrap;html=1;" parent="1" vertex="1">
          <mxGeometry x="194" y="410" width="76" height="20" as="geometry" />
        </mxCell>
        <mxCell id="oOqZ6PW6AVLumU6SATjX-12" style="rounded=0;orthogonalLoop=1;jettySize=auto;html=1;exitX=1;exitY=1;exitDx=0;exitDy=0;endArrow=ERmany;endFill=0;entryX=0;entryY=0.25;entryDx=0;entryDy=0;" parent="1" target="oOqZ6PW6AVLumU6SATjX-13" edge="1">
          <mxGeometry relative="1" as="geometry">
            <mxPoint x="630" y="476" as="targetPoint" />
            <mxPoint x="610" y="466" as="sourcePoint" />
          </mxGeometry>
        </mxCell>
        <mxCell id="oOqZ6PW6AVLumU6SATjX-13" value="Attachment" style="rounded=1;whiteSpace=wrap;html=1;" parent="1" vertex="1">
          <mxGeometry x="634" y="466" width="76" height="20" as="geometry" />
        </mxCell>
        <mxCell id="oOqZ6PW6AVLumU6SATjX-15" value="Instruction" style="rounded=1;whiteSpace=wrap;html=1;" parent="1" vertex="1">
          <mxGeometry x="553" y="510" width="120" height="30" as="geometry" />
        </mxCell>
        <mxCell id="oOqZ6PW6AVLumU6SATjX-16" style="rounded=0;orthogonalLoop=1;jettySize=auto;html=1;exitX=1;exitY=1;exitDx=0;exitDy=0;endArrow=ERmany;endFill=0;entryX=0;entryY=0.25;entryDx=0;entryDy=0;" parent="1" target="oOqZ6PW6AVLumU6SATjX-17" edge="1">
          <mxGeometry relative="1" as="geometry">
            <mxPoint x="693" y="550" as="targetPoint" />
            <mxPoint x="673" y="540" as="sourcePoint" />
          </mxGeometry>
        </mxCell>
        <mxCell id="oOqZ6PW6AVLumU6SATjX-17" value="Attachment" style="rounded=1;whiteSpace=wrap;html=1;" parent="1" vertex="1">
          <mxGeometry x="697" y="540" width="76" height="20" as="geometry" />
        </mxCell>
        <mxCell id="oOqZ6PW6AVLumU6SATjX-18" value="Impact" style="rounded=1;whiteSpace=wrap;html=1;" parent="1" vertex="1">
          <mxGeometry x="423" y="510" width="120" height="30" as="geometry" />
        </mxCell>
        <mxCell id="oOqZ6PW6AVLumU6SATjX-22" value="Checklist" style="rounded=1;whiteSpace=wrap;html=1;" parent="1" vertex="1">
          <mxGeometry x="290" y="380" width="120" height="30" as="geometry" />
        </mxCell>
        <mxCell id="oOqZ6PW6AVLumU6SATjX-25" style="rounded=0;orthogonalLoop=1;jettySize=auto;html=1;exitX=1;exitY=1;exitDx=0;exitDy=0;endArrow=ERmany;endFill=0;entryX=0;entryY=0.25;entryDx=0;entryDy=0;" parent="1" target="oOqZ6PW6AVLumU6SATjX-26" edge="1">
          <mxGeometry relative="1" as="geometry">
            <mxPoint x="630" y="420" as="targetPoint" />
            <mxPoint x="610" y="410" as="sourcePoint" />
          </mxGeometry>
        </mxCell>
        <mxCell id="oOqZ6PW6AVLumU6SATjX-26" value="Attachment" style="rounded=1;whiteSpace=wrap;html=1;" parent="1" vertex="1">
          <mxGeometry x="634" y="410" width="76" height="20" as="geometry" />
        </mxCell>
      </root>
    </mxGraphModel>
  </diagram>
</mxfile>
